<svg width="120" height="120" viewBox="0 0 120 120" fill="none" xmlns="http://www.w3.org/2000/svg">
  <!-- Chat bubble base -->
  <path d="M20 25C20 19.4772 24.4772 15 30 15H90C95.5228 15 100 19.4772 100 25V55C100 60.5228 95.5228 65 90 65H45L25 85V65H30C24.4772 65 20 60.5228 20 55V25Z" fill="#E91E63"/>
  
  <!-- Heart shape -->
  <path d="M60 45C60 35 45 25 35 35C25 25 10 35 10 45C10 55 35 75 60 85C85 75 110 55 110 45C110 35 95 25 85 35C75 25 60 35 60 45Z" fill="white" transform="translate(-10, -5) scale(0.6)"/>
  
  <!-- Highlight on bubble -->
  <ellipse cx="45" cy="30" rx="15" ry="8" fill="rgba(255, 255, 255, 0.3)"/>
</svg> 