<svg width="120" height="120" viewBox="0 0 120 120" fill="none" xmlns="http://www.w3.org/2000/svg">
  <path d="M60 100C60 100 20 80 20 50C20 30 35 20 50 20C55 20 60 25 60 25C60 25 65 20 70 20C85 20 100 30 100 50C100 80 60 100 60 100Z" fill="#E91E63"/>
  <path d="M25 95C25 95 15 85 20 80C25 75 35 80 40 85C45 90 50 95 60 100C70 95 75 90 80 85C85 80 95 75 100 80C105 85 95 95 95 95C90 100 85 105 80 105C75 105 70 100 60 105C50 100 45 105 40 105C35 105 30 100 25 95Z" fill="#E91E63"/>
  <circle cx="45" cy="45" r="3" fill="white"/>
  <circle cx="75" cy="45" r="3" fill="white"/>
  <path d="M50 60C50 60 55 65 60 65C65 65 70 60 70 60" stroke="white" stroke-width="3" stroke-linecap="round"/>
</svg> 