
<svg width="120" height="120" viewBox="0 0 120 120" fill="none" xmlns="http://www.w3.org/2000/svg">
  <!-- Fundo roxo da logo -->
  <rect width="120" height="120" fill="#663399" rx="15"/>
  
  <!-- Balão de chat rosa principal -->
  <path d="M30 40C30 33.3726 35.3726 28 42 28H78C84.6274 28 90 33.3726 90 40V60C90 66.6274 84.6274 72 78 72H50L30 90V72C30 72 30 40 30 40Z" fill="#FF4081"/>
  
  <!-- Coração dentro do balão -->
  <path d="M50 50C50 44 56 38 62 44C68 38 74 44 74 50C74 56 62 66 62 66C62 66 50 56 50 50Z" fill="white"/>
  
  <!-- Sombra suave -->
  <ellipse cx="60" cy="105" rx="25" ry="5" fill="rgba(102, 51, 153, 0.3)"/>
</svg> 