<svg width="120" height="120" viewBox="0 0 120 120" fill="none" xmlns="http://www.w3.org/2000/svg">
  <!-- Círculo de fundo -->
  <circle cx="60" cy="60" r="55" fill="#E91E63"/>
  
  <!-- Balão de chat -->
  <path d="M30 35C30 28.925 34.925 24 41 24H79C85.075 24 90 28.925 90 35V60C90 66.075 85.075 71 79 71H45L30 85V71C30 71 30 35 30 35Z" fill="white"/>
  
  <!-- Coração dentro -->
  <path d="M48 47C48 42 53 38 60 43C67 38 72 42 72 47C72 52 60 62 60 62C60 62 48 52 48 47Z" fill="#E91E63"/>
</svg> 