<svg width="120" height="120" viewBox="0 0 120 120" fill="none" xmlns="http://www.w3.org/2000/svg">
  <!-- Balão de chat principal -->
  <path d="M20 30C20 20.954 27.954 13 37 13H83C92.046 13 100 20.954 100 30V65C100 74.046 92.046 82 83 82H45L20 100V82C20 82 20 30 20 30Z" fill="#E91E63"/>
  
  <!-- Coração dentro do balão -->
  <path d="M45 45C45 38 52 32 60 38C68 32 75 38 75 45C75 52 60 65 60 65C60 65 45 52 45 45Z" fill="white"/>
  
  <!-- Sombra suave -->
  <ellipse cx="60" cy="110" rx="30" ry="8" fill="rgba(233, 30, 99, 0.2)"/>
</svg> 