<svg width="1200" height="600" viewBox="0 0 1200 600" fill="none" xmlns="http://www.w3.org/2000/svg">
  <defs>
    <linearGradient id="bg" x1="0%" y1="0%" x2="100%" y2="100%">
      <stop offset="0%" style="stop-color:#764BA2;stop-opacity:1" />
      <stop offset="100%" style="stop-color:#FF699D;stop-opacity:1" />
    </linearGradient>
  </defs>
  
  <!-- Background -->
  <rect width="1200" height="600" fill="url(#bg)"/>
  
  <!-- Pessoa 1 - Homem confuso (esquerda) -->
  <circle cx="200" cy="180" r="50" fill="#D4A574" opacity="0.9"/>
  <rect x="160" y="230" width="80" height="120" fill="#2E2E2E" opacity="0.9" rx="15"/>
  <text x="200" y="190" font-family="Arial, sans-serif" font-size="30" text-anchor="middle" fill="#000">😰</text>
  
  <!-- Pessoa 2 - Mulher feliz (centro) -->
  <circle cx="600" cy="170" r="55" fill="#F4C2A1" opacity="0.9"/>
  <rect x="555" y="225" width="90" height="130" fill="#FF6B35" opacity="0.9" rx="15"/>
  <text x="600" y="180" font-family="Arial, sans-serif" font-size="35" text-anchor="middle" fill="#000">😊</text>
  <rect x="580" y="280" width="40" height="70" fill="#333" opacity="0.8" rx="8"/>
  <text x="600" y="315" font-family="Arial, sans-serif" font-size="20" text-anchor="middle" fill="#FFF">📱</text>
  
  <!-- Pessoa 3 - Homem sorrindo (direita) -->
  <circle cx="1000" cy="190" r="52" fill="#E8B07A" opacity="0.9"/>
  <rect x="958" y="242" width="84" height="125" fill="#4A90E2" opacity="0.9" rx="15"/>
  <text x="1000" y="200" font-family="Arial, sans-serif" font-size="32" text-anchor="middle" fill="#000">😄</text>
  <ellipse cx="985" cy="175" rx="15" ry="8" fill="#333" opacity="0.7"/>
  <ellipse cx="1015" cy="175" rx="15" ry="8" fill="#333" opacity="0.7"/>
  
  <!-- Texto "DESLIZA DESLIZA E NADA!" -->
  <rect x="50" y="80" width="300" height="150" fill="#FF1744" opacity="0.9" rx="20"/>
  <text x="200" y="115" font-family="Arial, sans-serif" font-size="28" font-weight="bold" text-anchor="middle" fill="#FFEB3B">DESLIZA</text>
  <text x="200" y="150" font-family="Arial, sans-serif" font-size="28" font-weight="bold" text-anchor="middle" fill="#FFEB3B">DESLIZA E</text>
  <text x="200" y="185" font-family="Arial, sans-serif" font-size="28" font-weight="bold" text-anchor="middle" fill="#FFEB3B">NADA!</text>
  <text x="200" y="210" font-family="Arial, sans-serif" font-size="35" text-anchor="middle">😔</text>
  
  <!-- Texto "CONVERSE FREE" -->
  <rect x="850" y="100" width="300" height="120" fill="#FF69B4" opacity="0.9" rx="20"/>
  <text x="1000" y="145" font-family="Arial, sans-serif" font-size="42" font-weight="bold" text-anchor="middle" fill="#FFFFFF">CONVERSE</text>
  <text x="1000" y="190" font-family="Arial, sans-serif" font-size="42" font-weight="bold" text-anchor="middle" fill="#FFFFFF">FREE</text>
  
  <!-- Elementos decorativos -->
  <circle cx="150" cy="300" r="20" fill="#FFEB3B" opacity="0.3"/>
  <circle cx="1050" cy="350" r="25" fill="#FF1744" opacity="0.3"/>
  <circle cx="500" cy="450" r="18" fill="#00E676" opacity="0.3"/>
  
</svg> 